<?xml version="1.0" standalone="no"?>
<!DOCTYPE svg PUBLIC "-//W3C//DTD SVG 1.1//EN" "http://www.w3.org/Graphics/SVG/1.1/DTD/svg11.dtd">
<svg width="897" height="1102" version="1.1" xmlns="http://www.w3.org/2000/svg">
<rect x="205" y="25" width="73" height="22" style="fill:rgb(255,255,255);stroke:rgb(0,0,0);stroke-width:1"/>
<text x="241.5" y="36" style="font-family:Arial;font-size:8pt;fill:rgb(0,0,0);font-weight:bold;text-anchor:middle;dominant-baseline:central">SkolniRok</text>
<line x1="207" y1="27" x2="215" y2="27" style="stroke:rgb(0,0,0);stroke-width:1"/>
<line x1="207" y1="29" x2="213" y2="29" style="stroke:rgb(0,0,0);stroke-width:1"/>
<line x1="207" y1="31" x2="213" y2="31" style="stroke:rgb(0,0,0);stroke-width:1"/>
<line x1="207" y1="33" x2="213" y2="33" style="stroke:rgb(0,0,0);stroke-width:1"/>

<rect x="205" y="77" width="55" height="22" style="fill:rgb(255,255,255);stroke:rgb(0,0,0);stroke-width:1"/>
<text x="232.5" y="88" style="font-family:Arial;font-size:8pt;fill:rgb(0,0,0);font-weight:bold;text-anchor:middle;dominant-baseline:central">Datum</text>
<line x1="207" y1="79" x2="215" y2="79" style="stroke:rgb(0,0,0);stroke-width:1"/>
<line x1="207" y1="81" x2="213" y2="81" style="stroke:rgb(0,0,0);stroke-width:1"/>
<line x1="207" y1="83" x2="213" y2="83" style="stroke:rgb(0,0,0);stroke-width:1"/>
<line x1="207" y1="85" x2="213" y2="85" style="stroke:rgb(0,0,0);stroke-width:1"/>

<rect x="205" y="129" width="42" height="22" style="fill:rgb(255,255,255);stroke:rgb(0,0,0);stroke-width:1"/>
<text x="226" y="140" style="font-family:Arial;font-size:8pt;fill:rgb(0,0,0);font-weight:bold;text-anchor:middle;dominant-baseline:central">Cas</text>
<line x1="207" y1="131" x2="215" y2="131" style="stroke:rgb(0,0,0);stroke-width:1"/>
<line x1="207" y1="133" x2="213" y2="133" style="stroke:rgb(0,0,0);stroke-width:1"/>
<line x1="207" y1="135" x2="213" y2="135" style="stroke:rgb(0,0,0);stroke-width:1"/>
<line x1="207" y1="137" x2="213" y2="137" style="stroke:rgb(0,0,0);stroke-width:1"/>

<rect x="519" y="181" width="59" height="22" style="fill:rgb(255,255,255);stroke:rgb(0,0,0);stroke-width:1"/>
<text x="548.5" y="192" style="font-family:Arial;font-size:8pt;fill:rgb(0,0,0);font-weight:bold;text-anchor:middle;dominant-baseline:central">Zkratka</text>
<line x1="521" y1="183" x2="529" y2="183" style="stroke:rgb(0,0,0);stroke-width:1"/>
<line x1="521" y1="185" x2="527" y2="185" style="stroke:rgb(0,0,0);stroke-width:1"/>
<line x1="521" y1="187" x2="527" y2="187" style="stroke:rgb(0,0,0);stroke-width:1"/>
<line x1="521" y1="189" x2="527" y2="189" style="stroke:rgb(0,0,0);stroke-width:1"/>

<rect x="519" y="233" width="53" height="22" style="fill:rgb(255,255,255);stroke:rgb(0,0,0);stroke-width:1"/>
<text x="545.5" y="244" style="font-family:Arial;font-size:8pt;fill:rgb(0,0,0);font-weight:bold;text-anchor:middle;dominant-baseline:central">Nazev</text>
<line x1="521" y1="235" x2="529" y2="235" style="stroke:rgb(0,0,0);stroke-width:1"/>
<line x1="521" y1="237" x2="527" y2="237" style="stroke:rgb(0,0,0);stroke-width:1"/>
<line x1="521" y1="239" x2="527" y2="239" style="stroke:rgb(0,0,0);stroke-width:1"/>
<line x1="521" y1="241" x2="527" y2="241" style="stroke:rgb(0,0,0);stroke-width:1"/>

<line x1="509" y1="192" x2="519" y2="192" style="stroke:rgb(0,0,0);stroke-width:1;stroke-linecap:round"/>
<line x1="509" y1="244" x2="519" y2="244" style="stroke:rgb(0,0,0);stroke-width:1;stroke-linecap:round"/>
<line x1="509" y1="192" x2="509" y2="244" style="stroke:rgb(0,0,0);stroke-width:1;stroke-linecap:round"/>
<line x1="499" y1="218" x2="509" y2="218" style="stroke:rgb(0,0,0);stroke-width:1;stroke-linecap:round"/>
<path d="M465 208 L488 208 L494 214 L494 222 L488 228 L465 228 L459 222 L459 214 Z" style="fill:rgb(255,255,255);stroke:rgb(0,0,0);stroke-width:1"/>
<line x1="462" y1="218" x2="491" y2="218" style="stroke:rgb(0,0,0);stroke-width:1"/>
<ellipse cx="471" cy="218" rx="2" ry="2" style="rgb(0,0,0)"/>
<ellipse cx="476" cy="218" rx="2" ry="2" style="rgb(0,0,0)"/>
<ellipse cx="481" cy="218" rx="2" ry="2" style="rgb(0,0,0)"/>
<rect x="489" y="213" width="10" height="10" style="fill:rgb(255,255,255);stroke:rgb(0,0,0);stroke-width:1"/>
<line x1="491" y1="218" x2="497" y2="218" style="stroke:rgb(0,0,0);stroke-width:1"/>

<line x1="439" y1="218" x2="459" y2="218" style="stroke:rgb(0,0,0);stroke-width:1;stroke-linecap:round"/>
<rect x="368" y="210" width="69" height="22" style="fill:rgb(255,255,255);stroke:rgb(0,0,0);stroke-width:1"/>
<rect x="365" y="207" width="69" height="22" style="fill:rgb(255,255,255);stroke:rgb(0,0,0);stroke-width:1"/>
<text x="399.5" y="218" style="font-family:Arial;font-size:8pt;fill:rgb(0,0,0);font-weight:bold;text-anchor:middle;dominant-baseline:central">Predmet</text>
<text x="429" y="239" style="font-family:Arial;font-size:7.2pt;fill:rgb(0,0,0);text-anchor:end;dominant-baseline:central">1..∞</text>
<rect x="429" y="213" width="10" height="10" style="fill:rgb(255,255,255);stroke:rgb(0,0,0);stroke-width:1"/>
<line x1="431" y1="218" x2="437" y2="218" style="stroke:rgb(0,0,0);stroke-width:1"/>

<line x1="345" y1="218" x2="365" y2="218" style="stroke:rgb(0,0,0);stroke-width:1;stroke-linecap:round"/>
<path d="M311 208 L334 208 L340 214 L340 222 L334 228 L311 228 L305 222 L305 214 Z" style="fill:rgb(255,255,255);stroke:rgb(0,0,0);stroke-width:1"/>
<line x1="308" y1="218" x2="337" y2="218" style="stroke:rgb(0,0,0);stroke-width:1"/>
<ellipse cx="317" cy="218" rx="2" ry="2" style="rgb(0,0,0)"/>
<ellipse cx="322" cy="218" rx="2" ry="2" style="rgb(0,0,0)"/>
<ellipse cx="327" cy="218" rx="2" ry="2" style="rgb(0,0,0)"/>
<rect x="335" y="213" width="10" height="10" style="fill:rgb(255,255,255);stroke:rgb(0,0,0);stroke-width:1"/>
<line x1="337" y1="218" x2="343" y2="218" style="stroke:rgb(0,0,0);stroke-width:1"/>

<line x1="285" y1="218" x2="305" y2="218" style="stroke:rgb(0,0,0);stroke-width:1;stroke-linecap:round"/>
<rect x="205" y="207" width="75" height="22" style="fill:rgb(255,255,255);stroke:rgb(0,0,0);stroke-width:1"/>
<text x="242.5" y="218" style="font-family:Arial;font-size:8pt;fill:rgb(0,0,0);font-weight:bold;text-anchor:middle;dominant-baseline:central">Predmety</text>
<rect x="275" y="213" width="10" height="10" style="fill:rgb(255,255,255);stroke:rgb(0,0,0);stroke-width:1"/>
<line x1="277" y1="218" x2="283" y2="218" style="stroke:rgb(0,0,0);stroke-width:1"/>

<rect x="510" y="285" width="56" height="22" style="fill:rgb(255,255,255);stroke:rgb(0,0,0);stroke-width:1"/>
<text x="538" y="296" style="font-family:Arial;font-size:8pt;fill:rgb(0,0,0);font-weight:bold;text-anchor:middle;dominant-baseline:central">Jmeno</text>
<line x1="512" y1="287" x2="520" y2="287" style="stroke:rgb(0,0,0);stroke-width:1"/>
<line x1="512" y1="289" x2="518" y2="289" style="stroke:rgb(0,0,0);stroke-width:1"/>
<line x1="512" y1="291" x2="518" y2="291" style="stroke:rgb(0,0,0);stroke-width:1"/>
<line x1="512" y1="293" x2="518" y2="293" style="stroke:rgb(0,0,0);stroke-width:1"/>

<rect x="510" y="337" width="63" height="22" style="fill:rgb(255,255,255);stroke:rgb(0,0,0);stroke-width:1"/>
<text x="541.5" y="348" style="font-family:Arial;font-size:8pt;fill:rgb(0,0,0);font-weight:bold;text-anchor:middle;dominant-baseline:central">Prijmeni</text>
<line x1="512" y1="339" x2="520" y2="339" style="stroke:rgb(0,0,0);stroke-width:1"/>
<line x1="512" y1="341" x2="518" y2="341" style="stroke:rgb(0,0,0);stroke-width:1"/>
<line x1="512" y1="343" x2="518" y2="343" style="stroke:rgb(0,0,0);stroke-width:1"/>
<line x1="512" y1="345" x2="518" y2="345" style="stroke:rgb(0,0,0);stroke-width:1"/>

<rect x="510" y="389" width="50" height="22" style="fill:rgb(255,255,255);stroke:rgb(0,0,0);stroke-width:1"/>
<text x="535" y="400" style="font-family:Arial;font-size:8pt;fill:rgb(0,0,0);font-weight:bold;text-anchor:middle;dominant-baseline:central">Email</text>
<line x1="512" y1="391" x2="520" y2="391" style="stroke:rgb(0,0,0);stroke-width:1"/>
<line x1="512" y1="393" x2="518" y2="393" style="stroke:rgb(0,0,0);stroke-width:1"/>
<line x1="512" y1="395" x2="518" y2="395" style="stroke:rgb(0,0,0);stroke-width:1"/>
<line x1="512" y1="397" x2="518" y2="397" style="stroke:rgb(0,0,0);stroke-width:1"/>

<rect x="510" y="441" width="48" height="22" style="fill:rgb(255,255,255);stroke:rgb(0,0,0);stroke-width:1"/>
<text x="534" y="452" style="font-family:Arial;font-size:8pt;fill:rgb(0,0,0);font-weight:bold;text-anchor:middle;dominant-baseline:central">Trida</text>
<line x1="512" y1="443" x2="520" y2="443" style="stroke:rgb(0,0,0);stroke-width:1"/>
<line x1="512" y1="445" x2="518" y2="445" style="stroke:rgb(0,0,0);stroke-width:1"/>
<line x1="512" y1="447" x2="518" y2="447" style="stroke:rgb(0,0,0);stroke-width:1"/>
<line x1="512" y1="449" x2="518" y2="449" style="stroke:rgb(0,0,0);stroke-width:1"/>

<rect x="824" y="493" width="59" height="22" style="fill:rgb(255,255,255);stroke:rgb(0,0,0);stroke-width:1"/>
<text x="853.5" y="504" style="font-family:Arial;font-size:8pt;fill:rgb(0,0,0);font-weight:bold;text-anchor:middle;dominant-baseline:central">Zkratka</text>
<line x1="826" y1="495" x2="834" y2="495" style="stroke:rgb(0,0,0);stroke-width:1"/>
<line x1="826" y1="497" x2="832" y2="497" style="stroke:rgb(0,0,0);stroke-width:1"/>
<line x1="826" y1="499" x2="832" y2="499" style="stroke:rgb(0,0,0);stroke-width:1"/>
<line x1="826" y1="501" x2="832" y2="501" style="stroke:rgb(0,0,0);stroke-width:1"/>

<rect x="824" y="545" width="53" height="22" style="fill:rgb(255,255,255);stroke:rgb(0,0,0);stroke-width:1;stroke-dasharray:4,1"/>
<text x="850.5" y="556" style="font-family:Arial;font-size:8pt;fill:rgb(0,0,0);font-weight:bold;text-anchor:middle;dominant-baseline:central">Nazev</text>
<line x1="826" y1="547" x2="834" y2="547" style="stroke:rgb(0,0,0);stroke-width:1"/>
<line x1="826" y1="549" x2="832" y2="549" style="stroke:rgb(0,0,0);stroke-width:1"/>
<line x1="826" y1="551" x2="832" y2="551" style="stroke:rgb(0,0,0);stroke-width:1"/>
<line x1="826" y1="553" x2="832" y2="553" style="stroke:rgb(0,0,0);stroke-width:1"/>

<rect x="824" y="597" width="51" height="22" style="fill:rgb(255,255,255);stroke:rgb(0,0,0);stroke-width:1"/>
<text x="849.5" y="608" style="font-family:Arial;font-size:8pt;fill:rgb(0,0,0);font-weight:bold;text-anchor:middle;dominant-baseline:central">Ucitel</text>
<line x1="826" y1="599" x2="834" y2="599" style="stroke:rgb(0,0,0);stroke-width:1"/>
<line x1="826" y1="601" x2="832" y2="601" style="stroke:rgb(0,0,0);stroke-width:1"/>
<line x1="826" y1="603" x2="832" y2="603" style="stroke:rgb(0,0,0);stroke-width:1"/>
<line x1="826" y1="605" x2="832" y2="605" style="stroke:rgb(0,0,0);stroke-width:1"/>

<rect x="824" y="649" width="63" height="22" style="fill:rgb(255,255,255);stroke:rgb(0,0,0);stroke-width:1"/>
<text x="855.5" y="660" style="font-family:Arial;font-size:8pt;fill:rgb(0,0,0);font-weight:bold;text-anchor:middle;dominant-baseline:central">Skupina</text>
<line x1="826" y1="651" x2="834" y2="651" style="stroke:rgb(0,0,0);stroke-width:1"/>
<line x1="826" y1="653" x2="832" y2="653" style="stroke:rgb(0,0,0);stroke-width:1"/>
<line x1="826" y1="655" x2="832" y2="655" style="stroke:rgb(0,0,0);stroke-width:1"/>
<line x1="826" y1="657" x2="832" y2="657" style="stroke:rgb(0,0,0);stroke-width:1"/>

<line x1="814" y1="504" x2="824" y2="504" style="stroke:rgb(0,0,0);stroke-width:1;stroke-linecap:round"/>
<line x1="814" y1="556" x2="824" y2="556" style="stroke:rgb(0,0,0);stroke-width:1;stroke-linecap:round"/>
<line x1="814" y1="608" x2="824" y2="608" style="stroke:rgb(0,0,0);stroke-width:1;stroke-linecap:round"/>
<line x1="814" y1="660" x2="824" y2="660" style="stroke:rgb(0,0,0);stroke-width:1;stroke-linecap:round"/>
<line x1="814" y1="504" x2="814" y2="660" style="stroke:rgb(0,0,0);stroke-width:1;stroke-linecap:round"/>
<line x1="804" y1="582" x2="814" y2="582" style="stroke:rgb(0,0,0);stroke-width:1;stroke-linecap:round"/>
<path d="M770 572 L793 572 L799 578 L799 586 L793 592 L770 592 L764 586 L764 578 Z" style="fill:rgb(255,255,255);stroke:rgb(0,0,0);stroke-width:1"/>
<line x1="767" y1="582" x2="796" y2="582" style="stroke:rgb(0,0,0);stroke-width:1"/>
<ellipse cx="776" cy="582" rx="2" ry="2" style="rgb(0,0,0)"/>
<ellipse cx="781" cy="582" rx="2" ry="2" style="rgb(0,0,0)"/>
<ellipse cx="786" cy="582" rx="2" ry="2" style="rgb(0,0,0)"/>
<rect x="794" y="577" width="10" height="10" style="fill:rgb(255,255,255);stroke:rgb(0,0,0);stroke-width:1"/>
<line x1="796" y1="582" x2="802" y2="582" style="stroke:rgb(0,0,0);stroke-width:1"/>

<line x1="744" y1="582" x2="764" y2="582" style="stroke:rgb(0,0,0);stroke-width:1;stroke-linecap:round"/>
<rect x="673" y="574" width="69" height="22" style="fill:rgb(255,255,255);stroke:rgb(0,0,0);stroke-width:1"/>
<rect x="670" y="571" width="69" height="22" style="fill:rgb(255,255,255);stroke:rgb(0,0,0);stroke-width:1"/>
<text x="704.5" y="582" style="font-family:Arial;font-size:8pt;fill:rgb(0,0,0);font-weight:bold;text-anchor:middle;dominant-baseline:central">Predmet</text>
<text x="734" y="603" style="font-family:Arial;font-size:7.2pt;fill:rgb(0,0,0);text-anchor:end;dominant-baseline:central">1..∞</text>
<rect x="734" y="577" width="10" height="10" style="fill:rgb(255,255,255);stroke:rgb(0,0,0);stroke-width:1"/>
<line x1="736" y1="582" x2="742" y2="582" style="stroke:rgb(0,0,0);stroke-width:1"/>

<line x1="650" y1="582" x2="670" y2="582" style="stroke:rgb(0,0,0);stroke-width:1;stroke-linecap:round"/>
<path d="M616 572 L639 572 L645 578 L645 586 L639 592 L616 592 L610 586 L610 578 Z" style="fill:rgb(255,255,255);stroke:rgb(0,0,0);stroke-width:1"/>
<line x1="613" y1="582" x2="642" y2="582" style="stroke:rgb(0,0,0);stroke-width:1"/>
<ellipse cx="622" cy="582" rx="2" ry="2" style="rgb(0,0,0)"/>
<ellipse cx="627" cy="582" rx="2" ry="2" style="rgb(0,0,0)"/>
<ellipse cx="632" cy="582" rx="2" ry="2" style="rgb(0,0,0)"/>
<rect x="640" y="577" width="10" height="10" style="fill:rgb(255,255,255);stroke:rgb(0,0,0);stroke-width:1"/>
<line x1="642" y1="582" x2="648" y2="582" style="stroke:rgb(0,0,0);stroke-width:1"/>

<line x1="590" y1="582" x2="610" y2="582" style="stroke:rgb(0,0,0);stroke-width:1;stroke-linecap:round"/>
<rect x="510" y="571" width="75" height="22" style="fill:rgb(255,255,255);stroke:rgb(0,0,0);stroke-width:1"/>
<text x="547.5" y="582" style="font-family:Arial;font-size:8pt;fill:rgb(0,0,0);font-weight:bold;text-anchor:middle;dominant-baseline:central">Predmety</text>
<rect x="580" y="577" width="10" height="10" style="fill:rgb(255,255,255);stroke:rgb(0,0,0);stroke-width:1"/>
<line x1="582" y1="582" x2="588" y2="582" style="stroke:rgb(0,0,0);stroke-width:1"/>

<line x1="500" y1="296" x2="510" y2="296" style="stroke:rgb(0,0,0);stroke-width:1;stroke-linecap:round"/>
<line x1="500" y1="348" x2="510" y2="348" style="stroke:rgb(0,0,0);stroke-width:1;stroke-linecap:round"/>
<line x1="500" y1="400" x2="510" y2="400" style="stroke:rgb(0,0,0);stroke-width:1;stroke-linecap:round"/>
<line x1="500" y1="452" x2="510" y2="452" style="stroke:rgb(0,0,0);stroke-width:1;stroke-linecap:round"/>
<line x1="500" y1="582" x2="510" y2="582" style="stroke:rgb(0,0,0);stroke-width:1;stroke-linecap:round"/>
<line x1="500" y1="296" x2="500" y2="582" style="stroke:rgb(0,0,0);stroke-width:1;stroke-linecap:round"/>
<line x1="490" y1="478" x2="500" y2="478" style="stroke:rgb(0,0,0);stroke-width:1;stroke-linecap:round"/>
<path d="M456 468 L479 468 L485 474 L485 482 L479 488 L456 488 L450 482 L450 474 Z" style="fill:rgb(255,255,255);stroke:rgb(0,0,0);stroke-width:1"/>
<line x1="453" y1="478" x2="482" y2="478" style="stroke:rgb(0,0,0);stroke-width:1"/>
<ellipse cx="462" cy="478" rx="2" ry="2" style="rgb(0,0,0)"/>
<ellipse cx="467" cy="478" rx="2" ry="2" style="rgb(0,0,0)"/>
<ellipse cx="472" cy="478" rx="2" ry="2" style="rgb(0,0,0)"/>
<rect x="480" y="473" width="10" height="10" style="fill:rgb(255,255,255);stroke:rgb(0,0,0);stroke-width:1"/>
<line x1="482" y1="478" x2="488" y2="478" style="stroke:rgb(0,0,0);stroke-width:1"/>

<line x1="430" y1="478" x2="450" y2="478" style="stroke:rgb(0,0,0);stroke-width:1;stroke-linecap:round"/>
<rect x="359" y="467" width="66" height="22" style="fill:rgb(255,255,255);stroke:rgb(0,0,0);stroke-width:1"/>
<text x="392" y="478" style="font-family:Arial;font-size:8pt;fill:rgb(0,0,0);font-weight:bold;text-anchor:middle;dominant-baseline:central">Student</text>
<rect x="420" y="473" width="10" height="10" style="fill:rgb(255,255,255);stroke:rgb(0,0,0);stroke-width:1"/>
<line x1="422" y1="478" x2="428" y2="478" style="stroke:rgb(0,0,0);stroke-width:1"/>

<line x1="339" y1="478" x2="359" y2="478" style="stroke:rgb(0,0,0);stroke-width:1;stroke-linecap:round"/>
<path d="M305 468 L328 468 L334 474 L334 482 L328 488 L305 488 L299 482 L299 474 Z" style="fill:rgb(255,255,255);stroke:rgb(0,0,0);stroke-width:1"/>
<line x1="302" y1="478" x2="331" y2="478" style="stroke:rgb(0,0,0);stroke-width:1"/>
<ellipse cx="311" cy="478" rx="2" ry="2" style="rgb(0,0,0)"/>
<ellipse cx="316" cy="478" rx="2" ry="2" style="rgb(0,0,0)"/>
<ellipse cx="321" cy="478" rx="2" ry="2" style="rgb(0,0,0)"/>
<rect x="329" y="473" width="10" height="10" style="fill:rgb(255,255,255);stroke:rgb(0,0,0);stroke-width:1"/>
<line x1="331" y1="478" x2="337" y2="478" style="stroke:rgb(0,0,0);stroke-width:1"/>

<line x1="279" y1="478" x2="299" y2="478" style="stroke:rgb(0,0,0);stroke-width:1;stroke-linecap:round"/>
<rect x="205" y="467" width="69" height="22" style="fill:rgb(255,255,255);stroke:rgb(0,0,0);stroke-width:1"/>
<text x="239.5" y="478" style="font-family:Arial;font-size:8pt;fill:rgb(0,0,0);font-weight:bold;text-anchor:middle;dominant-baseline:central">Studenti</text>
<rect x="269" y="473" width="10" height="10" style="fill:rgb(255,255,255);stroke:rgb(0,0,0);stroke-width:1"/>
<line x1="271" y1="478" x2="277" y2="478" style="stroke:rgb(0,0,0);stroke-width:1"/>

<rect x="493" y="701" width="56" height="22" style="fill:rgb(255,255,255);stroke:rgb(0,0,0);stroke-width:1"/>
<text x="521" y="712" style="font-family:Arial;font-size:8pt;fill:rgb(0,0,0);font-weight:bold;text-anchor:middle;dominant-baseline:central">Jmeno</text>
<line x1="495" y1="703" x2="503" y2="703" style="stroke:rgb(0,0,0);stroke-width:1"/>
<line x1="495" y1="705" x2="501" y2="705" style="stroke:rgb(0,0,0);stroke-width:1"/>
<line x1="495" y1="707" x2="501" y2="707" style="stroke:rgb(0,0,0);stroke-width:1"/>
<line x1="495" y1="709" x2="501" y2="709" style="stroke:rgb(0,0,0);stroke-width:1"/>

<rect x="493" y="753" width="63" height="22" style="fill:rgb(255,255,255);stroke:rgb(0,0,0);stroke-width:1"/>
<text x="524.5" y="764" style="font-family:Arial;font-size:8pt;fill:rgb(0,0,0);font-weight:bold;text-anchor:middle;dominant-baseline:central">Prijmeni</text>
<line x1="495" y1="755" x2="503" y2="755" style="stroke:rgb(0,0,0);stroke-width:1"/>
<line x1="495" y1="757" x2="501" y2="757" style="stroke:rgb(0,0,0);stroke-width:1"/>
<line x1="495" y1="759" x2="501" y2="759" style="stroke:rgb(0,0,0);stroke-width:1"/>
<line x1="495" y1="761" x2="501" y2="761" style="stroke:rgb(0,0,0);stroke-width:1"/>

<rect x="493" y="805" width="45" height="22" style="fill:rgb(255,255,255);stroke:rgb(0,0,0);stroke-width:1"/>
<text x="515.5" y="816" style="font-family:Arial;font-size:8pt;fill:rgb(0,0,0);font-weight:bold;text-anchor:middle;dominant-baseline:central">Titul</text>
<line x1="495" y1="807" x2="503" y2="807" style="stroke:rgb(0,0,0);stroke-width:1"/>
<line x1="495" y1="809" x2="501" y2="809" style="stroke:rgb(0,0,0);stroke-width:1"/>
<line x1="495" y1="811" x2="501" y2="811" style="stroke:rgb(0,0,0);stroke-width:1"/>
<line x1="495" y1="813" x2="501" y2="813" style="stroke:rgb(0,0,0);stroke-width:1"/>

<rect x="493" y="857" width="50" height="22" style="fill:rgb(255,255,255);stroke:rgb(0,0,0);stroke-width:1"/>
<text x="518" y="868" style="font-family:Arial;font-size:8pt;fill:rgb(0,0,0);font-weight:bold;text-anchor:middle;dominant-baseline:central">Email</text>
<line x1="495" y1="859" x2="503" y2="859" style="stroke:rgb(0,0,0);stroke-width:1"/>
<line x1="495" y1="861" x2="501" y2="861" style="stroke:rgb(0,0,0);stroke-width:1"/>
<line x1="495" y1="863" x2="501" y2="863" style="stroke:rgb(0,0,0);stroke-width:1"/>
<line x1="495" y1="865" x2="501" y2="865" style="stroke:rgb(0,0,0);stroke-width:1"/>

<rect x="493" y="909" width="48" height="22" style="fill:rgb(255,255,255);stroke:rgb(0,0,0);stroke-width:1"/>
<text x="517" y="920" style="font-family:Arial;font-size:8pt;fill:rgb(0,0,0);font-weight:bold;text-anchor:middle;dominant-baseline:central">Trida</text>
<line x1="495" y1="911" x2="503" y2="911" style="stroke:rgb(0,0,0);stroke-width:1"/>
<line x1="495" y1="913" x2="501" y2="913" style="stroke:rgb(0,0,0);stroke-width:1"/>
<line x1="495" y1="915" x2="501" y2="915" style="stroke:rgb(0,0,0);stroke-width:1"/>
<line x1="495" y1="917" x2="501" y2="917" style="stroke:rgb(0,0,0);stroke-width:1"/>

<rect x="807" y="961" width="59" height="22" style="fill:rgb(255,255,255);stroke:rgb(0,0,0);stroke-width:1"/>
<text x="836.5" y="972" style="font-family:Arial;font-size:8pt;fill:rgb(0,0,0);font-weight:bold;text-anchor:middle;dominant-baseline:central">Zkratka</text>
<line x1="809" y1="963" x2="817" y2="963" style="stroke:rgb(0,0,0);stroke-width:1"/>
<line x1="809" y1="965" x2="815" y2="965" style="stroke:rgb(0,0,0);stroke-width:1"/>
<line x1="809" y1="967" x2="815" y2="967" style="stroke:rgb(0,0,0);stroke-width:1"/>
<line x1="809" y1="969" x2="815" y2="969" style="stroke:rgb(0,0,0);stroke-width:1"/>

<rect x="807" y="1013" width="48" height="22" style="fill:rgb(255,255,255);stroke:rgb(0,0,0);stroke-width:1"/>
<text x="831" y="1024" style="font-family:Arial;font-size:8pt;fill:rgb(0,0,0);font-weight:bold;text-anchor:middle;dominant-baseline:central">Trida</text>
<line x1="809" y1="1015" x2="817" y2="1015" style="stroke:rgb(0,0,0);stroke-width:1"/>
<line x1="809" y1="1017" x2="815" y2="1017" style="stroke:rgb(0,0,0);stroke-width:1"/>
<line x1="809" y1="1019" x2="815" y2="1019" style="stroke:rgb(0,0,0);stroke-width:1"/>
<line x1="809" y1="1021" x2="815" y2="1021" style="stroke:rgb(0,0,0);stroke-width:1"/>

<rect x="810" y="1068" width="63" height="22" style="fill:rgb(255,255,255);stroke:rgb(0,0,0);stroke-width:1"/>
<rect x="807" y="1065" width="63" height="22" style="fill:rgb(255,255,255);stroke:rgb(0,0,0);stroke-width:1"/>
<text x="838.5" y="1076" style="font-family:Arial;font-size:8pt;fill:rgb(0,0,0);font-weight:bold;text-anchor:middle;dominant-baseline:central">Skupina</text>
<text x="860" y="1097" style="font-family:Arial;font-size:7.2pt;fill:rgb(0,0,0);text-anchor:end;dominant-baseline:central">1..∞</text>
<line x1="809" y1="1067" x2="817" y2="1067" style="stroke:rgb(0,0,0);stroke-width:1"/>
<line x1="809" y1="1069" x2="815" y2="1069" style="stroke:rgb(0,0,0);stroke-width:1"/>
<line x1="809" y1="1071" x2="815" y2="1071" style="stroke:rgb(0,0,0);stroke-width:1"/>
<line x1="809" y1="1073" x2="815" y2="1073" style="stroke:rgb(0,0,0);stroke-width:1"/>

<line x1="797" y1="972" x2="807" y2="972" style="stroke:rgb(0,0,0);stroke-width:1;stroke-linecap:round"/>
<line x1="797" y1="1024" x2="807" y2="1024" style="stroke:rgb(0,0,0);stroke-width:1;stroke-linecap:round"/>
<line x1="797" y1="1076" x2="807" y2="1076" style="stroke:rgb(0,0,0);stroke-width:1;stroke-linecap:round"/>
<line x1="797" y1="972" x2="797" y2="1076" style="stroke:rgb(0,0,0);stroke-width:1;stroke-linecap:round"/>
<line x1="787" y1="1024" x2="797" y2="1024" style="stroke:rgb(0,0,0);stroke-width:1;stroke-linecap:round"/>
<path d="M753 1014 L776 1014 L782 1020 L782 1028 L776 1034 L753 1034 L747 1028 L747 1020 Z" style="fill:rgb(255,255,255);stroke:rgb(0,0,0);stroke-width:1"/>
<line x1="750" y1="1024" x2="779" y2="1024" style="stroke:rgb(0,0,0);stroke-width:1"/>
<ellipse cx="759" cy="1024" rx="2" ry="2" style="rgb(0,0,0)"/>
<ellipse cx="764" cy="1024" rx="2" ry="2" style="rgb(0,0,0)"/>
<ellipse cx="769" cy="1024" rx="2" ry="2" style="rgb(0,0,0)"/>
<rect x="777" y="1019" width="10" height="10" style="fill:rgb(255,255,255);stroke:rgb(0,0,0);stroke-width:1"/>
<line x1="779" y1="1024" x2="785" y2="1024" style="stroke:rgb(0,0,0);stroke-width:1"/>

<line x1="727" y1="1024" x2="747" y2="1024" style="stroke:rgb(0,0,0);stroke-width:1;stroke-linecap:round"/>
<rect x="653" y="1013" width="69" height="22" style="fill:rgb(255,255,255);stroke:rgb(0,0,0);stroke-width:1"/>
<text x="687.5" y="1024" style="font-family:Arial;font-size:8pt;fill:rgb(0,0,0);font-weight:bold;text-anchor:middle;dominant-baseline:central">Predmet</text>
<rect x="717" y="1019" width="10" height="10" style="fill:rgb(255,255,255);stroke:rgb(0,0,0);stroke-width:1"/>
<line x1="719" y1="1024" x2="725" y2="1024" style="stroke:rgb(0,0,0);stroke-width:1"/>

<line x1="633" y1="1024" x2="653" y2="1024" style="stroke:rgb(0,0,0);stroke-width:1;stroke-linecap:round"/>
<path d="M599 1014 L622 1014 L628 1020 L628 1028 L622 1034 L599 1034 L593 1028 L593 1020 Z" style="fill:rgb(255,255,255);stroke:rgb(0,0,0);stroke-width:1"/>
<line x1="596" y1="1024" x2="625" y2="1024" style="stroke:rgb(0,0,0);stroke-width:1"/>
<ellipse cx="605" cy="1024" rx="2" ry="2" style="rgb(0,0,0)"/>
<ellipse cx="610" cy="1024" rx="2" ry="2" style="rgb(0,0,0)"/>
<ellipse cx="615" cy="1024" rx="2" ry="2" style="rgb(0,0,0)"/>
<rect x="623" y="1019" width="10" height="10" style="fill:rgb(255,255,255);stroke:rgb(0,0,0);stroke-width:1"/>
<line x1="625" y1="1024" x2="631" y2="1024" style="stroke:rgb(0,0,0);stroke-width:1"/>

<line x1="573" y1="1024" x2="593" y2="1024" style="stroke:rgb(0,0,0);stroke-width:1;stroke-linecap:round"/>
<rect x="493" y="1013" width="75" height="22" style="fill:rgb(255,255,255);stroke:rgb(0,0,0);stroke-width:1"/>
<text x="530.5" y="1024" style="font-family:Arial;font-size:8pt;fill:rgb(0,0,0);font-weight:bold;text-anchor:middle;dominant-baseline:central">Predmety</text>
<rect x="563" y="1019" width="10" height="10" style="fill:rgb(255,255,255);stroke:rgb(0,0,0);stroke-width:1"/>
<line x1="565" y1="1024" x2="571" y2="1024" style="stroke:rgb(0,0,0);stroke-width:1"/>

<line x1="483" y1="712" x2="493" y2="712" style="stroke:rgb(0,0,0);stroke-width:1;stroke-linecap:round"/>
<line x1="483" y1="764" x2="493" y2="764" style="stroke:rgb(0,0,0);stroke-width:1;stroke-linecap:round"/>
<line x1="483" y1="816" x2="493" y2="816" style="stroke:rgb(0,0,0);stroke-width:1;stroke-linecap:round"/>
<line x1="483" y1="868" x2="493" y2="868" style="stroke:rgb(0,0,0);stroke-width:1;stroke-linecap:round"/>
<line x1="483" y1="920" x2="493" y2="920" style="stroke:rgb(0,0,0);stroke-width:1;stroke-linecap:round"/>
<line x1="483" y1="1024" x2="493" y2="1024" style="stroke:rgb(0,0,0);stroke-width:1;stroke-linecap:round"/>
<line x1="483" y1="712" x2="483" y2="1024" style="stroke:rgb(0,0,0);stroke-width:1;stroke-linecap:round"/>
<line x1="473" y1="894" x2="483" y2="894" style="stroke:rgb(0,0,0);stroke-width:1;stroke-linecap:round"/>
<path d="M439 884 L462 884 L468 890 L468 898 L462 904 L439 904 L433 898 L433 890 Z" style="fill:rgb(255,255,255);stroke:rgb(0,0,0);stroke-width:1"/>
<line x1="436" y1="894" x2="465" y2="894" style="stroke:rgb(0,0,0);stroke-width:1"/>
<ellipse cx="445" cy="894" rx="2" ry="2" style="rgb(0,0,0)"/>
<ellipse cx="450" cy="894" rx="2" ry="2" style="rgb(0,0,0)"/>
<ellipse cx="455" cy="894" rx="2" ry="2" style="rgb(0,0,0)"/>
<rect x="463" y="889" width="10" height="10" style="fill:rgb(255,255,255);stroke:rgb(0,0,0);stroke-width:1"/>
<line x1="465" y1="894" x2="471" y2="894" style="stroke:rgb(0,0,0);stroke-width:1"/>

<line x1="413" y1="894" x2="433" y2="894" style="stroke:rgb(0,0,0);stroke-width:1;stroke-linecap:round"/>
<rect x="355" y="886" width="56" height="22" style="fill:rgb(255,255,255);stroke:rgb(0,0,0);stroke-width:1"/>
<rect x="352" y="883" width="56" height="22" style="fill:rgb(255,255,255);stroke:rgb(0,0,0);stroke-width:1"/>
<text x="380" y="894" style="font-family:Arial;font-size:8pt;fill:rgb(0,0,0);font-weight:bold;text-anchor:middle;dominant-baseline:central">Ucitel</text>
<text x="403" y="915" style="font-family:Arial;font-size:7.2pt;fill:rgb(0,0,0);text-anchor:end;dominant-baseline:central">1..∞</text>
<rect x="403" y="889" width="10" height="10" style="fill:rgb(255,255,255);stroke:rgb(0,0,0);stroke-width:1"/>
<line x1="405" y1="894" x2="411" y2="894" style="stroke:rgb(0,0,0);stroke-width:1"/>

<line x1="332" y1="894" x2="352" y2="894" style="stroke:rgb(0,0,0);stroke-width:1;stroke-linecap:round"/>
<path d="M298 884 L321 884 L327 890 L327 898 L321 904 L298 904 L292 898 L292 890 Z" style="fill:rgb(255,255,255);stroke:rgb(0,0,0);stroke-width:1"/>
<line x1="295" y1="894" x2="324" y2="894" style="stroke:rgb(0,0,0);stroke-width:1"/>
<ellipse cx="304" cy="894" rx="2" ry="2" style="rgb(0,0,0)"/>
<ellipse cx="309" cy="894" rx="2" ry="2" style="rgb(0,0,0)"/>
<ellipse cx="314" cy="894" rx="2" ry="2" style="rgb(0,0,0)"/>
<rect x="322" y="889" width="10" height="10" style="fill:rgb(255,255,255);stroke:rgb(0,0,0);stroke-width:1"/>
<line x1="324" y1="894" x2="330" y2="894" style="stroke:rgb(0,0,0);stroke-width:1"/>

<line x1="272" y1="894" x2="292" y2="894" style="stroke:rgb(0,0,0);stroke-width:1;stroke-linecap:round"/>
<rect x="205" y="883" width="62" height="22" style="fill:rgb(255,255,255);stroke:rgb(0,0,0);stroke-width:1"/>
<text x="236" y="894" style="font-family:Arial;font-size:8pt;fill:rgb(0,0,0);font-weight:bold;text-anchor:middle;dominant-baseline:central">Ucitele</text>
<rect x="262" y="889" width="10" height="10" style="fill:rgb(255,255,255);stroke:rgb(0,0,0);stroke-width:1"/>
<line x1="264" y1="894" x2="270" y2="894" style="stroke:rgb(0,0,0);stroke-width:1"/>

<line x1="195" y1="36" x2="205" y2="36" style="stroke:rgb(0,0,0);stroke-width:1;stroke-linecap:round"/>
<line x1="195" y1="88" x2="205" y2="88" style="stroke:rgb(0,0,0);stroke-width:1;stroke-linecap:round"/>
<line x1="195" y1="140" x2="205" y2="140" style="stroke:rgb(0,0,0);stroke-width:1;stroke-linecap:round"/>
<line x1="195" y1="218" x2="205" y2="218" style="stroke:rgb(0,0,0);stroke-width:1;stroke-linecap:round"/>
<line x1="195" y1="478" x2="205" y2="478" style="stroke:rgb(0,0,0);stroke-width:1;stroke-linecap:round"/>
<line x1="195" y1="894" x2="205" y2="894" style="stroke:rgb(0,0,0);stroke-width:1;stroke-linecap:round"/>
<line x1="195" y1="36" x2="195" y2="894" style="stroke:rgb(0,0,0);stroke-width:1;stroke-linecap:round"/>
<line x1="185" y1="556" x2="195" y2="556" style="stroke:rgb(0,0,0);stroke-width:1;stroke-linecap:round"/>
<path d="M151 546 L174 546 L180 552 L180 560 L174 566 L151 566 L145 560 L145 552 Z" style="fill:rgb(255,255,255);stroke:rgb(0,0,0);stroke-width:1"/>
<line x1="148" y1="556" x2="177" y2="556" style="stroke:rgb(0,0,0);stroke-width:1"/>
<ellipse cx="157" cy="556" rx="2" ry="2" style="rgb(0,0,0)"/>
<ellipse cx="162" cy="556" rx="2" ry="2" style="rgb(0,0,0)"/>
<ellipse cx="167" cy="556" rx="2" ry="2" style="rgb(0,0,0)"/>
<rect x="175" y="551" width="10" height="10" style="fill:rgb(255,255,255);stroke:rgb(0,0,0);stroke-width:1"/>
<line x1="177" y1="556" x2="183" y2="556" style="stroke:rgb(0,0,0);stroke-width:1"/>

<line x1="125" y1="556" x2="145" y2="556" style="stroke:rgb(0,0,0);stroke-width:1;stroke-linecap:round"/>
<rect x="20" y="545" width="100" height="22" style="fill:rgb(255,255,255);stroke:rgb(0,0,0);stroke-width:1"/>
<text x="70" y="556" style="font-family:Arial;font-size:8pt;fill:rgb(0,0,0);font-weight:bold;text-anchor:middle;dominant-baseline:central">BakalariImport</text>
<rect x="115" y="551" width="10" height="10" style="fill:rgb(255,255,255);stroke:rgb(0,0,0);stroke-width:1"/>
<line x1="117" y1="556" x2="123" y2="556" style="stroke:rgb(0,0,0);stroke-width:1"/>
</svg>
